<svg xmlns="http://www.w3.org/2000/svg" width="29.25" height="29.25" viewBox="0 0 29.25 29.25">
  <g id="Icon_ionic-ios-image" data-name="Icon ionic-ios-image" transform="translate(-3.375 -3.375)">
    <path id="パス_1855" data-name="パス 1855" d="M7.917,21.959H21.326a.392.392,0,0,0,.316-.619L14.934,10.554a.388.388,0,0,0-.64,0L7.594,21.34A.394.394,0,0,0,7.917,21.959Z" fill="#7c7c7c"/>
    <path id="パス_1856" data-name="パス 1856" d="M21.565,17.88,24.026,21.8a.381.381,0,0,0,.316.169h3.741a.392.392,0,0,0,.316-.619L24.068,15.18a.388.388,0,0,0-.64,0l-1.87,2.257A.405.405,0,0,0,21.565,17.88Z" fill="#7c7c7c"/>
    <path id="パス_1857" data-name="パス 1857" d="M24.687,11.805a1.968,1.968,0,1,0-2.159-2.159A1.976,1.976,0,0,0,24.687,11.805Z" fill="#7c7c7c"/>
    <path id="パス_1858" data-name="パス 1858" d="M30.375,3.375H5.625a2.248,2.248,0,0,0-2.25,2.25v24.75a2.248,2.248,0,0,0,2.25,2.25h24.75a2.248,2.248,0,0,0,2.25-2.25V5.625A2.248,2.248,0,0,0,30.375,3.375Zm-.19,19.688a.564.564,0,0,1-.562.563H6.377a.564.564,0,0,1-.562-.562V6.377a.564.564,0,0,1,.563-.562H29.63a.564.564,0,0,1,.563.563V23.063Z" fill="#7c7c7c"/>
  </g>
</svg>
